<svg xmlns="http://www.w3.org/2000/svg" viewBox="0 0 400 400" width="400" height="400">
  <defs>
    <linearGradient id="bg-m" x1="0" y1="0" x2="1" y2="1">
      <stop offset="0%" stop-color="#f5ebe9"/>
      <stop offset="100%" stop-color="#edddd9"/>
    </linearGradient>
  </defs>
  <rect width="400" height="400" rx="24" fill="url(#bg-m)"/>
  <!-- Candle -->
  <rect x="180" y="180" width="40" height="120" rx="4" fill="#d4a574"/>
  <rect x="184" y="184" width="32" height="116" rx="2" fill="#e8c9a0"/>
  <!-- Flame -->
  <path d="M200 120 C200 120 215 145 215 160 C215 168 208 175 200 175 C192 175 185 168 185 160 C185 145 200 120 200 120Z" fill="#f59e0b"/>
  <path d="M200 135 C200 135 208 150 208 158 C208 163 204 167 200 167 C196 167 192 163 192 158 C192 150 200 135 200 135Z" fill="#fbbf24"/>
  <!-- Glow -->
  <circle cx="200" cy="155" r="30" fill="#fbbf24" opacity="0.15"/>
  <circle cx="200" cy="155" r="18" fill="#f59e0b" opacity="0.1"/>
  <!-- Paw print (subtle) -->
  <circle cx="140" cy="280" r="8" fill="#8b5a5a" opacity="0.3"/>
  <circle cx="125" cy="265" r="6" fill="#8b5a5a" opacity="0.25"/>
  <circle cx="155" cy="265" r="6" fill="#8b5a5a" opacity="0.25"/>
  <circle cx="118" cy="282" r="5" fill="#8b5a5a" opacity="0.2"/>
  <!-- Heart (subtle) -->
  <path d="M260 260 C260 260 245 250 245 240 C245 235 248 232 252 232 C255 232 260 237 260 237 C260 237 265 232 268 232 C272 232 275 235 275 240 C275 250 260 260 260 260Z" fill="#8b5a5a" opacity="0.3"/>
  <!-- Stars -->
  <circle cx="130" cy="150" r="2" fill="#8b5a5a" opacity="0.4"/>
  <circle cx="270" cy="140" r="2.5" fill="#8b5a5a" opacity="0.35"/>
  <circle cx="290" cy="200" r="2" fill="#8b5a5a" opacity="0.3"/>
</svg>
